<svg width="251" height="251" viewBox="0 0 251 251" fill="none" xmlns="http://www.w3.org/2000/svg">
<g id="Group 29">
<path id="Vector" d="M223.87 0H188.74C184.679 0 181.387 3.29241 181.387 7.35352C181.387 11.4146 184.679 14.707 188.74 14.707H223.87C230.72 14.707 236.293 20.28 236.293 27.1301V62.2598C236.293 66.3209 239.585 69.6133 243.646 69.6133C247.708 69.6133 251 66.3209 251 62.2598V27.1301C251 12.1706 238.829 0 223.87 0V0Z" fill="white"/>
<path id="Vector_2" d="M7.35352 69.6133C11.4146 69.6133 14.707 66.3209 14.707 62.2598V27.1301C14.707 20.28 20.28 14.707 27.1296 14.707H62.2598C66.3209 14.707 69.6133 11.4146 69.6133 7.35352C69.6133 3.29241 66.3209 0 62.2598 0H27.1296C12.1706 0 0 12.1706 0 27.1301V62.2598C0 66.3209 3.29241 69.6133 7.35352 69.6133Z" fill="white"/>
<path id="Vector_3" d="M62.2598 236.293H27.1296C20.28 236.293 14.707 230.72 14.707 223.87V188.74C14.707 184.679 11.4146 181.387 7.35352 181.387C3.29241 181.387 0 184.679 0 188.74V223.87C0 238.829 12.1706 251 27.1296 251H62.2598C66.3209 251 69.6133 247.708 69.6133 243.646C69.6133 239.585 66.3209 236.293 62.2598 236.293Z" fill="white"/>
<path id="Vector_4" d="M243.646 181.387C239.585 181.387 236.293 184.679 236.293 188.74V223.87C236.293 230.72 230.72 236.293 223.87 236.293H188.74C184.679 236.293 181.387 239.585 181.387 243.646C181.387 247.708 184.679 251 188.74 251H223.87C238.83 251 251 238.829 251 223.87V188.74C251 184.679 247.708 181.387 243.646 181.387Z" fill="white"/>
</g>
</svg>
